# xmcd
#
# Track frame offsets: 
#        150
#        14467
#        26467
#        42342
#        55067
#        66210
#        76000
#        88580
#        104262
#        113942
#        129157
#        142887
#
# Disc length: 2042 seconds
#
# Revision: 3
# Processed by: cddbd v1.5.2PL0 Copyright (c) Steve Scherf et al.
# Submitted via: ExactAudioCopyFreeDBPlugin 1.0
#
DISCID=8f07f80c
DTITLE=Sonny Boy Williamson II - More Real Folk Blues
DYEAR=1967
DGENRE=Folk Blues
TTITLE0=Help Me
TTITLE1=Bye Bye Bird
TTITLE2=Nine Below Zero
TTITLE3=The Hunt
TTITLE4=Stop Right Now
TTITLE5=She's My Baby
TTITLE6=The Goat
TTITLE7=Decoration Day
TTITLE8=Trying To Get Back On My Feet
TTITLE9=My Younger Days
TTITLE10=Close To Me
TTITLE11=Somebody Help Me
EXTD=CHD 9277\n\nSubmitted 7/23/97\n[Jmccoy@efn.org]
EXTT0=
EXTT1=
EXTT2=
EXTT3=
EXTT4=
EXTT5=
EXTT6=
EXTT7=
EXTT8=
EXTT9=
EXTT10=
EXTT11=
PLAYORDER=
